<svg preserveAspectRatio="none" width="100%" height="100%" overflow="visible" style="display: block;" viewBox="0 0 31.996 31.996" fill="none" xmlns="http://www.w3.org/2000/svg">
<g id="Icon">
<path id="Vector" d="M19.9975 27.9965V17.3312C19.9975 16.9776 19.857 16.6385 19.607 16.3885C19.357 16.1385 19.0179 15.998 18.6643 15.998H13.3317C12.9781 15.998 12.639 16.1385 12.389 16.3885C12.139 16.6385 11.9985 16.9776 11.9985 17.3312V27.9965" stroke="#6C63FF" stroke-width="2.66633" stroke-linecap="round" stroke-linejoin="round"/>
<path id="Vector_2" d="M3.9995 13.3317C3.99941 12.9438 4.08393 12.5606 4.24719 12.2088C4.41044 11.8569 4.64848 11.545 4.94471 11.2946L14.2769 3.29692C14.7581 2.89018 15.3679 2.66703 15.998 2.66703C16.6281 2.66703 17.2379 2.89018 17.7191 3.29692L27.0513 11.2946C27.3475 11.545 27.5856 11.8569 27.7488 12.2088C27.9121 12.5606 27.9966 12.9438 27.9965 13.3317V25.3302C27.9965 26.0373 27.7156 26.7155 27.2155 27.2155C26.7155 27.7156 26.0373 27.9965 25.3302 27.9965H6.66583C5.95868 27.9965 5.28048 27.7156 4.78045 27.2155C4.28042 26.7155 3.9995 26.0373 3.9995 25.3302V13.3317Z" stroke="#6C63FF" stroke-width="2.66633" stroke-linecap="round" stroke-linejoin="round"/>
</g>
</svg>
